<svg xmlns="http://www.w3.org/2000/svg" xmlns:xlink="http://www.w3.org/1999/xlink" viewBox="0 0 1157.59 273.32">
    <defs>
        <style>
            .cls-1{fill:url(#Dégradé_sans_nom_193);}.cls-2{fill:url(#Dégradé_sans_nom_6);}.cls-3{fill:url(#Dégradé_sans_nom_35);}.cls-4{fill:none;}.cls-5{fill:url(#Dégradé_sans_nom_155);}.cls-6{fill:url(#Dégradé_sans_nom_58);}.cls-7{fill:url(#Dégradé_sans_nom_4);}.cls-8{fill:url(#Dégradé_sans_nom_58-2);}.cls-9{fill:url(#Dégradé_sans_nom_7);}.cls-10{fill:url(#Dégradé_sans_nom_33);}.cls-11{fill:url(#Dégradé_sans_nom_34);}.cls-12{fill:url(#Dégradé_sans_nom_34-2);}.cls-13{fill:#000;}.cls-14{fill:url(#Dégradé_sans_nom_6-2);}.cls-15{fill:url(#Dégradé_sans_nom_6-3);}.cls-16{fill:url(#Dégradé_sans_nom_6-4);}
        </style>
        <linearGradient id="Dégradé_sans_nom_193" x1="156.93" y1="120.78" x2="229.35" y2="204.75"
                        gradientUnits="userSpaceOnUse">
            <stop offset="0" stop-color="#e5d589"/>
            <stop offset="1" stop-color="#b07c00"/>
        </linearGradient>
        <linearGradient id="Dégradé_sans_nom_6" x1="49.58" y1="64.94" x2="232.13" y2="151.89"
                        gradientUnits="userSpaceOnUse">
            <stop offset="0" stop-color="#ffe5a7"/>
            <stop offset="1" stop-color="#cf9406"/>
        </linearGradient>
        <linearGradient id="Dégradé_sans_nom_35" x1="28.32" y1="49.16" x2="298.41" y2="49.16"
                        gradientUnits="userSpaceOnUse">
            <stop offset="0" stop-color="#b07c00"/>
            <stop offset="1" stop-color="#dfaa28"/>
        </linearGradient>
        <linearGradient id="Dégradé_sans_nom_155" x1="148.21" y1="242.68" x2="163.35" y2="249.89"
                        gradientUnits="userSpaceOnUse">
            <stop offset="0" stop-color="#ffdf91"/>
            <stop offset="1" stop-color="#cf9406"/>
        </linearGradient>
        <linearGradient id="Dégradé_sans_nom_58" x1="29.35" y1="18.47" x2="310.71" y2="41.21"
                        gradientUnits="userSpaceOnUse">
            <stop offset="0" stop-color="#fdf7e8"/>
            <stop offset="0.3" stop-color="#ffdd8c"/>
            <stop offset="1" stop-color="#ffc845"/>
        </linearGradient>
        <linearGradient id="Dégradé_sans_nom_4" x1="148.89" y1="248.58" x2="34.49" y2="34.71"
                        gradientUnits="userSpaceOnUse">
            <stop offset="0" stop-color="#ffd675"/>
            <stop offset="1" stop-color="#c78f06"/>
        </linearGradient>
        <linearGradient id="Dégradé_sans_nom_58-2" x1="159.45" y1="84.25" x2="284.04" y2="122.57"
                        xlink:href="#Dégradé_sans_nom_58"/>
        <linearGradient id="Dégradé_sans_nom_7" x1="175.52" y1="242.37" x2="178.36" y2="110.22"
                        gradientUnits="userSpaceOnUse">
            <stop offset="0" stop-color="#fffcf6"/>
            <stop offset="0.57" stop-color="#ffd673"/>
            <stop offset="0.98" stop-color="#c78f06"/>
        </linearGradient>
        <radialGradient id="Dégradé_sans_nom_33" cx="29.49" cy="54.75" r="59.5"
                        gradientTransform="matrix(0.57, -0.82, 1.21, 0.84, -53.72, 33.17)"
                        gradientUnits="userSpaceOnUse">
            <stop offset="0.65" stop-color="#fff"/>
            <stop offset="1" stop-color="#fff" stop-opacity="0"/>
        </radialGradient>
        <linearGradient id="Dégradé_sans_nom_34" x1="109.16" y1="104.77" x2="246.35" y2="104.77"
                        gradientTransform="matrix(1, 0, 0, 1, 0, 0)" xlink:href="#Dégradé_sans_nom_33"/>
        <linearGradient id="Dégradé_sans_nom_34-2" x1="154.42" y1="208.26" x2="214.5" y2="208.26"
                        gradientTransform="matrix(1, 0, 0, 1, 0, 0)" xlink:href="#Dégradé_sans_nom_33"/>
        <linearGradient id="Dégradé_sans_nom_6-2" x1="992.12" y1="176.77" x2="1107.13" y2="255.93"
                        xlink:href="#Dégradé_sans_nom_6"/>
        <linearGradient id="Dégradé_sans_nom_6-3" x1="1020.77" y1="135.14" x2="1135.79" y2="214.3"
                        xlink:href="#Dégradé_sans_nom_6"/>
        <linearGradient id="Dégradé_sans_nom_6-4" x1="1039.18" y1="108.39" x2="1154.19" y2="187.56"
                        xlink:href="#Dégradé_sans_nom_6"/>
    </defs>
    <title>logo-white-horizontal</title>
    <g id="Calque_2" data-name="Calque 2">
        <g id="Calque_1-2" data-name="Calque 1">
            <path class="cls-1"
                  d="M155.06,77a297.65,297.65,0,0,0-45.9,4c16.13,2.94,36.38,7.86,63.6,20.21,21.24,9.65,43.84,44.49,17,79.75a493.58,493.58,0,0,1-35.32,37l0,55.39c82-62.85,113.74-131.18,128.3-162.09A259.91,259.91,0,0,0,155.06,77Z"/>
            <path class="cls-2"
                  d="M0,29.88s9,43.35,26.2,81.35C71.36,216,154.44,273.32,154.44,273.32s0-55.39,0-55.39-36.67-32.19-64.77-76.12C57,90.59,47.19,58,47.19,58S91.06,44.16,154.46,43.85c81.87-.39,144,25.9,144,25.9C306,45.52,308.84,30,308.84,30S241.7,0,155.06,0C67.86,0,0,29.88,0,29.88Z"/>
            <path class="cls-3"
                  d="M280.55,48.37C255.31,40,208.74,28.56,154.46,28.56c-70.38,0-126.14,19.71-126.14,19.71A141.82,141.82,0,0,0,47.19,58S91.06,43.85,154.46,43.85c72.08,0,121.5,17.81,144,25.9C292,65.35,285.63,58.84,280.55,48.37Z"/>
            <path class="cls-4" d="M154.48,217.93v0Z"/>
            <path class="cls-5" d="M154.44,273.32s0-53.36,0-55.32Z"/>
            <path class="cls-6"
                  d="M28.32,48.27S84.08,28.56,154.46,28.56c54.28,0,100.85,11.39,126.09,19.81,0,0,0,.08,0,.11A257.93,257.93,0,0,0,308.83,30c-.41-.19-67.4-30-153.77-30C67.86,0,0,29.88,0,29.88v.06C11.06,38.25,28.32,48.27,28.32,48.27Z"/>
            <path class="cls-7"
                  d="M89.71,141.81C57,90.59,47.19,58,47.19,58a142,142,0,0,1-18.85-9.73A411.62,411.62,0,0,0,154.47,240c0-11.73,0-22,0-22S117.81,185.74,89.71,141.81Z"/>
            <path class="cls-8"
                  d="M246.35,128.53a255.41,255.41,0,0,0,36.38-17.31A260,260,0,0,0,155.06,77a297.65,297.65,0,0,0-45.9,4l1.62.3A255.74,255.74,0,0,1,246.35,128.53Z"/>
            <path class="cls-9"
                  d="M110.78,81.3c15.87,3,35.66,8,62,19.91,21.24,9.65,43.84,44.49,17,79.75a493.58,493.58,0,0,1-35.32,37l0,22a412.94,412.94,0,0,0,91.71-111.55A255.64,255.64,0,0,0,110.78,81.3Z"/>
            <path class="cls-10"
                  d="M111.05,30.77c-1.88.18-3.76.32-5.63.54-3.74.43-7.49.81-11.22,1.34-7.48.93-14.91,2.2-22.33,3.56S57.08,39.2,49.74,41c-7.15,1.74-14.27,3.53-21.27,6h0c-2.26-1.29-4.53-2.6-6.78-3.92l-7.25-4.28q-3.61-2.16-7.2-4.37c-2.4-1.46-4.77-3-7.13-4.49l-.09,0,.05.26s4.3,3.49,6.51,5.17,4.56,3.31,6.89,4.91,4.68,3.15,7.06,4.66,4.52,2.86,6.83,4.24A409.54,409.54,0,0,0,62.8,128.53a408.56,408.56,0,0,1-33-79.45c6.73-2.17,13.55-4.25,20.42-6.1Q61.14,40,72.17,37.72c7.36-1.53,14.74-2.95,22.17-4.13,3.7-.65,7.43-1.14,11.16-1.69,1.86-.28,3.73-.48,5.59-.71l5.6-.81Z"/>
            <path class="cls-11"
                  d="M109.16,81l1.64.23h0A219.64,219.64,0,0,1,147,84.79c3,.53,6,1.2,9,1.81.74.14,1.48.32,2.22.51l2.22.54,4.43,1.09c.75.17,1.48.38,2.21.6l2.19.64,4.39,1.27,1.09.32,1.09.36,2.17.72,4.33,1.43c.73.23,1.45.49,2.16.77l2.13.8,4.28,1.62c1.43.51,2.82,1.15,4.23,1.72l4.21,1.77c2.78,1.23,5.52,2.57,8.28,3.84s5.43,2.77,8.13,4.16a216.77,216.77,0,0,1,30.59,19.77,314.92,314.92,0,0,0-31.45-18.11l-4.08-2c-1.37-.64-2.71-1.34-4.09-1.95-2.76-1.21-5.5-2.49-8.29-3.65s-5.57-2.32-8.39-3.39l-4.24-1.57-2.13-.79q-1.05-.4-2.13-.75c-2.87-.94-5.71-2-8.59-2.85s-5.78-1.75-8.69-2.54L159.9,89.8l-2.19-.58c-.73-.2-1.46-.38-2.2-.54l-4.41-1c-1.48-.32-2.94-.72-4.42-1a315.7,315.7,0,0,0-35.9-5.32h0Z"/>
            <path class="cls-12"
                  d="M154.47,240c2.54-2.63,5.05-5.31,7.64-7.87l7.76-7.67c2.59-2.55,5.19-5.1,7.82-7.61s5.22-5.07,7.76-7.66q7.63-7.8,14.86-16c4.84-5.44,9.61-10.95,14.19-16.63h0c-4.28,5.91-8.66,11.75-13.27,17.42s-9.43,11.16-14.37,16.55-9.9,10.78-15.32,15.69A180.8,180.8,0,0,1,154.47,240C154.39,239.92,154.43,240,154.47,240Z"/>
            <path class="cls-13"
                  d="M412.23,186.26V87.06q0-13.73,7.1-20.82t20.82-7.1H465.8q13.53,0,20.73,7.15t7.19,20.77v20.16q0,3-3.12,3H471.2q-3.13,0-3.13-3V92.46q0-7.77-7.76-7.76H446.4q-7.77,0-7.77,7.76v88.4q0,7.77,7.77,7.76h13.91q7.76,0,7.76-7.76v-26H458q-3.12,0-3.12-3V132.4q0-3.12,3.12-3.12H490.6q3.12,0,3.12,3.12v53.86q0,13.62-7.19,20.77t-20.73,7.15H440.15q-13.72,0-20.82-7.1T412.23,186.26Z"/>
            <path class="cls-13"
                  d="M547.83,211.05V62.17q0-3,3.12-3h20.16q3.12,0,3.12,3V211.05a2.94,2.94,0,0,1-3.12,3.13H551Q547.83,214.18,547.83,211.05Z"/>
            <path class="cls-13"
                  d="M628.44,210.3V63c0-2.58,1.29-3.88,3.87-3.88h25.61a4,4,0,0,1,4.25,3.41l21.45,96.54,21.44-96.54a4,4,0,0,1,4.26-3.41h25.6c2.58,0,3.88,1.3,3.88,3.88V210.3c0,2.58-1.29,3.88-3.86,3.88H717c-2.57,0-3.85-1.3-3.85-3.88V123h-1.33l-19.21,87.65a4.06,4.06,0,0,1-4.26,3.5h-9.47a4.06,4.06,0,0,1-4.26-3.5L655.41,123h-1.33V210.3c0,2.58-1.29,3.88-3.88,3.88H632.32C629.73,214.18,628.44,212.88,628.44,210.3Z"/>
            <path class="cls-13"
                  d="M793.19,211.05V62.17c0-2,1-3,3.11-3h46.39q13.68,0,20.85,7.1t7.16,20.82v35.59a13.19,13.19,0,0,1-3.43,9.13,14.35,14.35,0,0,1-8.69,4.69v.38a14.44,14.44,0,0,1,8.69,4.64,13,13,0,0,1,3.43,9.08v35.69q0,13.73-7.16,20.82t-20.85,7.1H796.3a2.93,2.93,0,0,1-3.11-3.13Zm26.4-87.17h17.67a7.85,7.85,0,0,0,5.8-2,7.51,7.51,0,0,0,2-5.58V92.46q0-7.77-7.79-7.76H819.59Zm0,64.74h17.67q7.8,0,7.79-7.76V157.2q0-7.77-7.79-7.76H819.59Z"/>
            <path class="cls-13"
                  d="M925.19,62.17q0-3,3.12-3h20.16q3.12,0,3.12,3V188.62h46.1q3.12,0,3.12,3v19.4q0,3.13-3.12,3.13H928.31q-3.12,0-3.12-3.13Z"/>
            <path class="cls-14"
                  d="M1028,211.88V201.37a2,2,0,0,1,2.28-2.29h10.38a2,2,0,0,1,2.27,2.29v10.51a2,2,0,0,1-2.27,2.3h-10.38A2,2,0,0,1,1028,211.88Z"/>
            <path class="cls-15"
                  d="M1054.48,197.68V150.49q0-8.12,4.19-12.3T1071,134h12.86q8,0,12.24,4.23t4.25,12.27V159a1.83,1.83,0,0,1-.5,1.34,1.8,1.8,0,0,1-1.34.5H1087.7a1.6,1.6,0,0,1-1.79-1.84V153.4q0-4.59-4.59-4.59H1074q-4.59,0-4.59,4.59v41.43q0,4.59,4.59,4.59h7.32q4.59,0,4.59-4.59v-10h-6a1.63,1.63,0,0,1-1.84-1.85V171.57a1.63,1.63,0,0,1,1.84-1.85h18.57a1.63,1.63,0,0,1,1.84,1.85v26.11q0,8.06-4.25,12.27t-12.24,4.23H1071q-8.12,0-12.31-4.2T1054.48,197.68Z"/>
            <path class="cls-16"
                  d="M1111.74,197.68V150.49q0-8.12,4.19-12.3t12.3-4.2h12.87q8,0,12.24,4.23t4.25,12.27V159a1.83,1.83,0,0,1-.5,1.34,1.81,1.81,0,0,1-1.34.5H1145a1.6,1.6,0,0,1-1.79-1.84V153.4c0-3.06-1.52-4.59-4.58-4.59h-7.33q-4.57,0-4.58,4.59v41.43q0,4.59,4.58,4.59h7.33c3.06,0,4.58-1.53,4.58-4.59v-10h-6a1.63,1.63,0,0,1-1.84-1.85V171.57a1.63,1.63,0,0,1,1.84-1.85h18.57a1.63,1.63,0,0,1,1.84,1.85v26.11q0,8.06-4.25,12.27t-12.24,4.23h-12.87q-8.1,0-12.3-4.2T1111.74,197.68Z"/>
        </g>
    </g>
</svg>